ply
format ascii 1.0
comment Created by CloudCompare v2.11.1 (Anoia)
comment Created 29.07.21 14:23
obj_info Generated by CloudCompare!
element vertex 43
property float x
property float y
property float z
property uchar red
property uchar green
property uchar blue
element face 98
property list uchar int vertex_indices
end_header
-0.0717158 0.0858578 0.1 239 41 41 
-0.08 0.0741422 0.108284 239 41 41 
-0.08 0.08 0.108284 239 41 41 
-2.33048e-17 -0.0141421 0.0282842 239 41 41 
-0.00585786 -1.38778e-17 0.0341422 239 41 41 
-0.08 0.07 0.1 239 41 41 
0.02 -6.9389e-17 0.02 239 41 41 
0.08 -0.08 0.108284 239 41 41 
0.08 -0.0741422 0.108284 239 41 41 
0.08 0.08 0.108284 239 41 41 
0.00585786 -7.33142e-17 0.0341422 239 41 41 
0.1 0.1 0.1 239 41 41 
-0.1 0.1 0.1 239 41 41 
0.1 -0.08 0.1 239 41 41 
-0.0717158 -0.0858578 0.1 239 41 41 
-0.0717158 -0.08 0.1 239 41 41 
0.0717158 -0.08 0.1 239 41 41 
0.0717158 -0.0858578 0.1 239 41 41 
-0.08 0.08 0.12 239 41 41 
-0.08 -0.08 0.12 239 41 41 
0.1 0.1 0.12 239 41 41 
0.08 0.08 0.12 239 41 41 
-0.1 0.1 0.12 239 41 41 
0.08 -0.08 0.12 239 41 41 
0.08 0.07 0.1 239 41 41 
0.08 0.0741422 0.108284 239 41 41 
-0.1 0.08 0.1 239 41 41 
-0.08 -0.08 0.108284 239 41 41 
-0.08 -0.07 0.1 239 41 41 
-0.08 -0.0741422 0.108284 239 41 41 
0.0717158 0.08 0.1 239 41 41 
-0.0717158 0.08 0.1 239 41 41 
-0.1 -0.1 0.1 239 41 41 
0.1 -0.1 0.1 239 41 41 
-0.1 -0.1 0.12 239 41 41 
0.1 0.08 0.1 239 41 41 
0.1 -0.1 0.12 239 41 41 
-0.02 -1.38778e-17 0.02 239 41 41 
-8.32668e-17 8.32668e-17 -2.77556e-17 239 41 41 
-0.1 -0.08 0.1 239 41 41 
-2.1798e-17 0.0141421 0.0282842 239 41 41 
0.0717158 0.0858578 0.1 239 41 41 
0.08 -0.07 0.1 239 41 41 
3 15 14 3 
3 40 0 31 
3 29 27 4 
3 27 15 4 
3 15 3 4 
3 3 40 4 
3 4 40 1 
3 40 31 1 
3 1 31 2 
3 40 38 0 
3 38 12 0 
3 38 3 32 
3 3 14 32 
3 37 39 4 
3 39 28 4 
3 4 28 29 
3 26 37 5 
3 37 4 5 
3 5 4 1 
3 13 33 6 
3 33 38 6 
3 6 38 35 
3 38 11 35 
3 7 8 16 
3 8 10 16 
3 16 10 17 
3 10 3 17 
3 25 9 10 
3 9 30 10 
3 30 41 10 
3 41 40 10 
3 10 40 3 
3 6 35 10 
3 35 24 10 
3 10 24 25 
3 27 19 23 
3 15 27 16 
3 27 23 16 
3 16 23 7 
3 30 31 41 
3 31 0 41 
3 41 0 11 
3 0 12 11 
3 22 20 12 
3 20 11 12 
3 24 35 42 
3 35 13 42 
3 33 32 14 
3 15 16 14 
3 16 17 14 
3 14 17 33 
3 18 22 19 
3 22 34 19 
3 19 34 23 
3 34 36 23 
3 23 36 21 
3 36 20 21 
3 21 20 18 
3 20 22 18 
3 8 7 23 
3 21 9 25 
3 24 42 25 
3 42 8 25 
3 25 8 21 
3 8 23 21 
3 5 28 26 
3 28 39 26 
3 1 2 18 
3 19 27 29 
3 28 5 29 
3 5 1 29 
3 29 1 19 
3 1 18 19 
3 30 9 31 
3 9 21 31 
3 31 21 2 
3 21 18 2 
3 39 32 34 
3 39 34 26 
3 34 22 26 
3 26 22 12 
3 33 36 32 
3 36 34 32 
3 35 11 20 
3 35 20 13 
3 20 36 13 
3 13 36 33 
3 26 12 37 
3 12 38 37 
3 37 38 39 
3 38 32 39 
3 40 41 38 
3 41 11 38 
3 38 33 3 
3 33 17 3 
3 13 6 42 
3 6 10 42 
3 42 10 8 
