ply
format ascii 1.0
comment Created by CloudCompare v2.11.1 (Anoia)
comment Created 01.07.21 19:19
obj_info Generated by CloudCompare!
element vertex 35
property float x
property float y
property float z
property uchar red
property uchar green
property uchar blue
element face 82
property list uchar int vertex_indices
end_header
-0.194343 0.196 0.2 115 210 22 
-0.194343 -0.197172 0.2 115 210 22 
-2.0589e-07 -6.93888e-18 2.0589e-07 115 210 22 
-7.61316e-17 -0.00282822 0.00565684 115 210 22 
-0.00117178 -8.32668e-17 0.00682864 115 210 22 
0.0040002 -9.71444e-17 0.0040002 115 210 22 
0.2 -0.2 0.2 115 210 22 
0.2 0.2 0.2 115 210 22 
0.00117178 -9.79296e-17 0.00682864 115 210 22 
-6.26464e-17 0.00282822 0.00565684 115 210 22 
0.196 0.194 0.2 115 210 22 
0.196 -0.196 0.201656 115 210 22 
0.194343 0.196 0.2 115 210 22 
0.2 0.2 0.204 115 210 22 
-0.2 0.2 0.2 115 210 22 
0.196 -0.194 0.2 115 210 22 
0.2 0.196 0.2 115 210 22 
-0.2 -0.2 0.2 115 210 22 
0.194343 -0.197172 0.2 115 210 22 
-0.196 -0.196 0.204 115 210 22 
-0.2 0.2 0.204 115 210 22 
-0.196 0.196 0.204 115 210 22 
0.196 -0.196 0.204 115 210 22 
0.196 0.194828 0.201656 115 210 22 
-0.196 -0.194 0.2 115 210 22 
-0.2 -0.196 0.2 115 210 22 
-0.196 0.194828 0.201656 115 210 22 
-0.196 -0.196 0.201656 115 210 22 
-0.196 0.194 0.2 115 210 22 
0.196 0.196 0.204 115 210 22 
-0.2 -0.2 0.204 115 210 22 
-0.2 0.196 0.2 115 210 22 
0.2 -0.2 0.204 115 210 22 
0.2 -0.196 0.2 115 210 22 
-0.0040002 -8.32668e-17 0.0040002 115 210 22 
3 26 4 0 
3 27 1 4 
3 0 4 9 
3 9 4 3 
3 4 1 3 
3 9 2 0 
3 0 2 14 
3 2 3 17 
3 17 3 1 
3 34 25 4 
3 25 24 4 
3 4 24 27 
3 4 26 34 
3 26 28 34 
3 34 28 31 
3 33 6 5 
3 6 2 5 
3 5 2 16 
3 2 7 16 
3 11 8 18 
3 8 3 18 
3 23 12 8 
3 12 9 8 
3 8 9 3 
3 5 16 8 
3 16 10 8 
3 8 10 23 
3 18 1 11 
3 1 27 11 
3 11 27 22 
3 27 19 22 
3 12 0 7 
3 0 14 7 
3 20 13 14 
3 13 7 14 
3 10 16 15 
3 16 33 15 
3 6 17 1 
3 1 18 6 
3 21 20 19 
3 20 30 19 
3 19 30 22 
3 30 32 22 
3 22 32 29 
3 32 13 29 
3 29 13 21 
3 13 20 21 
3 22 29 23 
3 22 23 11 
3 11 23 15 
3 23 10 15 
3 28 24 31 
3 24 25 31 
3 24 28 27 
3 28 26 27 
3 27 26 19 
3 26 21 19 
3 29 21 26 
3 26 0 29 
3 0 12 29 
3 29 12 23 
3 25 17 30 
3 25 30 31 
3 30 20 31 
3 31 20 14 
3 6 32 17 
3 32 30 17 
3 16 7 13 
3 16 13 33 
3 13 32 33 
3 33 32 6 
3 31 14 34 
3 14 2 34 
3 34 2 25 
3 2 17 25 
3 9 12 2 
3 2 12 7 
3 3 2 18 
3 18 2 6 
3 8 11 5 
3 11 15 5 
3 5 15 33 
